<svg height="409pt" viewBox="-7 0 409 409.6" width="409pt" xmlns="http://www.w3.org/2000/svg"><path d="m365.152344 402.773438h-333.757813c-13.402343 0-24.269531-10.863282-24.269531-24.265626v-333.761718c0-13.402344 10.867188-24.265625 24.269531-24.265625h333.757813c13.402344 0 24.269531 10.863281 24.269531 24.265625v333.757812c0 13.40625-10.867187 24.269532-24.269531 24.269532zm0 0" fill="#0e65e5"/><path d="m365.152344 409.601562h-333.757813c-17.144531 0-31.09375-13.949218-31.09375-31.09375v-333.761718c0-17.144532 13.949219-31.09375 31.09375-31.09375h333.757813c17.144531 0 31.09375 13.949218 31.09375 31.09375v333.761718c0 17.144532-13.949219 31.09375-31.09375 31.09375zm-333.757813-382.292968c-9.617187 0-17.441406 7.824218-17.441406 17.4375v333.761718c0 9.613282 7.824219 17.4375 17.441406 17.4375h333.757813c9.617187 0 17.441406-7.824218 17.441406-17.4375v-333.761718c0-9.613282-7.824219-17.4375-17.441406-17.4375zm0 0" fill="#0e65e5"/><path d="m365.152344 389.121094h-333.757813c-13.402343 0-24.269531-10.867188-24.269531-24.269532v-333.757812c0-13.402344 10.867188-24.265625 24.269531-24.265625h333.757813c13.402344 0 24.269531 10.863281 24.269531 24.265625v333.757812c0 13.402344-10.867187 24.269532-24.269531 24.269532zm0 0" fill="#d7e9ff"/><path d="m365.152344 395.945312h-333.757813c-17.144531 0-31.09375-13.945312-31.09375-31.09375v-333.757812c0-17.148438 13.949219-31.09375 31.09375-31.09375h333.757813c17.144531 0 31.09375 13.945312 31.09375 31.09375v333.757812c0 17.148438-13.949219 31.09375-31.09375 31.09375zm-333.757813-382.292968c-9.617187 0-17.441406 7.828125-17.441406 17.441406v333.757812c0 9.613282 7.824219 17.441407 17.441406 17.441407h333.757813c9.617187 0 17.441406-7.828125 17.441406-17.441407v-333.757812c0-9.613281-7.824219-17.441406-17.441406-17.441406zm0 0" fill="#0e65e5"/><path d="m362.113281 40.960938c0 3.769531-3.054687 6.824218-6.828125 6.824218-3.769531 0-6.824218-3.054687-6.824218-6.824218 0-3.769532 3.054687-6.828126 6.824218-6.828126 3.773438 0 6.828125 3.058594 6.828125 6.828126zm0 0" fill="#d7e9ff"/><path d="m355.285156 54.613281c-7.527344 0-13.652344-6.125-13.652344-13.652343 0-7.527344 6.125-13.652344 13.652344-13.652344 7.53125 0 13.65625 6.125 13.65625 13.652344 0 7.527343-6.125 13.652343-13.65625 13.652343zm0-13.660156v.007813zm0 0" fill="#0e65e5"/><path d="m362.113281 354.988281c0 3.769531-3.054687 6.824219-6.828125 6.824219-3.769531 0-6.824218-3.054688-6.824218-6.824219 0-3.773437 3.054687-6.828125 6.824218-6.828125 3.773438 0 6.828125 3.054688 6.828125 6.828125zm0 0" fill="#d7e9ff"/><path d="m355.285156 368.640625c-7.527344 0-13.652344-6.128906-13.652344-13.652344 0-7.527343 6.125-13.65625 13.652344-13.65625 7.53125 0 13.65625 6.128907 13.65625 13.65625 0 7.523438-6.125 13.652344-13.65625 13.652344zm0-13.660156v.007812zm0 0" fill="#0e65e5"/><path d="m48.085938 40.960938c0 3.769531-3.054688 6.824218-6.824219 6.824218-3.773438 0-6.828125-3.054687-6.828125-6.824218 0-3.769532 3.054687-6.828126 6.828125-6.828126 3.769531 0 6.824219 3.058594 6.824219 6.828126zm0 0" fill="#d7e9ff"/><path d="m41.261719 54.613281c-7.53125 0-13.65625-6.125-13.65625-13.652343 0-7.527344 6.125-13.652344 13.65625-13.652344 7.527343 0 13.652343 6.125 13.652343 13.652344 0 7.527343-6.125 13.652343-13.652343 13.652343zm0-13.660156v.007813zm0 0" fill="#0e65e5"/><path d="m48.085938 354.988281c0 3.769531-3.054688 6.824219-6.824219 6.824219-3.773438 0-6.828125-3.054688-6.828125-6.824219 0-3.773437 3.054687-6.828125 6.828125-6.828125 3.769531 0 6.824219 3.054688 6.824219 6.828125zm0 0" fill="#d7e9ff"/><path d="m41.261719 368.640625c-7.53125 0-13.65625-6.128906-13.65625-13.652344 0-7.527343 6.125-13.65625 13.65625-13.65625 7.527343 0 13.652343 6.128907 13.652343 13.65625 0 7.523438-6.125 13.652344-13.652343 13.652344zm0-13.660156v.007812zm0 0" fill="#0e65e5"/><path d="m348.460938 197.972656c0 82.945313-67.242188 150.1875-150.1875 150.1875-82.945313 0-150.1875-67.242187-150.1875-150.1875 0-82.945312 67.242187-150.1875 150.1875-150.1875 82.945312 0 150.1875 67.242188 150.1875 150.1875zm0 0" fill="#2a8ee6"/><path d="m198.273438 354.988281c-86.578126 0-157.011719-70.4375-157.011719-157.015625s70.433593-157.011718 157.011719-157.011718c86.578124 0 157.011718 70.433593 157.011718 157.011718s-70.433594 157.015625-157.011718 157.015625zm0-300.375c-79.050782 0-143.359376 64.3125-143.359376 143.359375s64.308594 143.359375 143.359376 143.359375c79.050781 0 143.359374-64.3125 143.359374-143.359375s-64.308593-143.359375-143.359374-143.359375zm0 0" fill="#0e65e5"/><path d="m82.21875 204.800781c-3.769531 0-6.824219-3.054687-6.824219-6.828125 0-67.753906 55.121094-122.878906 122.878907-122.878906 3.769531 0 6.828124 3.054688 6.828124 6.828125s-3.058593 6.824219-6.828124 6.824219c-60.226563 0-109.226563 49-109.226563 109.226562 0 3.773438-3.058594 6.828125-6.828125 6.828125zm0 0" fill="#fff"/><path d="m232.40625 197.972656c0 18.851563-15.28125 34.132813-34.132812 34.132813-18.851563 0-34.132813-15.28125-34.132813-34.132813 0-18.851562 15.28125-34.132812 34.132813-34.132812 18.851562 0 34.132812 15.28125 34.132812 34.132812zm0 0" fill="#fff"/><path d="m198.273438 238.933594c-22.585938 0-40.960938-18.375-40.960938-40.960938 0-22.585937 18.375-40.960937 40.960938-40.960937 22.585937 0 40.960937 18.375 40.960937 40.960937 0 22.585938-18.375 40.960938-40.960937 40.960938zm0-68.265625c-15.054688 0-27.308594 12.246093-27.308594 27.304687s12.253906 27.308594 27.308594 27.308594c15.054687 0 27.304687-12.25 27.304687-27.308594s-12.25-27.304687-27.304687-27.304687zm0 0" fill="#0e65e5"/><path d="m314.328125 157.011719h75.09375v81.921875h-75.09375zm0 0" fill="#d7e9ff"/><path d="m389.421875 245.761719h-75.09375c-3.773437 0-6.828125-3.054688-6.828125-6.828125v-81.921875c0-3.773438 3.054688-6.824219 6.828125-6.824219h75.09375c3.769531 0 6.824219 3.050781 6.824219 6.824219v81.921875c0 3.773437-3.054688 6.828125-6.824219 6.828125zm-68.269531-13.65625h61.441406v-68.265625h-61.441406zm0 0" fill="#0e65e5"/><path d="m246.058594 184.320312h68.269531v27.304688h-68.269531zm0 0" fill="#94c1ff"/><path d="m314.328125 218.453125h-68.269531c-3.769532 0-6.824219-3.054687-6.824219-6.828125v-27.304688c0-3.773437 3.054687-6.828124 6.824219-6.828124h68.269531c3.769531 0 6.824219 3.054687 6.824219 6.828124v27.304688c0 3.773438-3.054688 6.828125-6.824219 6.828125zm-61.441406-13.652344h54.613281v-13.652343h-54.613281zm0 0" fill="#0e65e5"/><g fill="#fff"><path d="m280.191406 300.375c-3.769531 0-6.824218-3.054688-6.824218-6.828125v-27.308594c0-3.773437 3.054687-6.824219 6.824218-6.824219 3.773438 0 6.828125 3.050782 6.828125 6.824219v27.308594c0 3.773437-3.054687 6.828125-6.828125 6.828125zm0 0"/><path d="m293.847656 286.71875h-27.308594c-3.769531 0-6.824218-3.050781-6.824218-6.824219 0-3.773437 3.054687-6.828125 6.824218-6.828125h27.308594c3.769532 0 6.824219 3.054688 6.824219 6.828125 0 3.773438-3.054687 6.824219-6.824219 6.824219zm0 0"/></g></svg>